<svg xmlns="http://www.w3.org/2000/svg" viewBox="0 0 512 512">
  <rect width="512" height="512" rx="114" fill="#ffffff"></rect>
  <rect x="3" y="3" width="506" height="506" rx="111" fill="none" stroke="#ece9e0" stroke-width="6"></rect>
  <g transform="translate(100,38) scale(1.0478)">
    <path d="M 144.5 38.0 Q 150 38 168.0 40.0 Q 186 42 195.5 44.0 Q 205 46 210.5 48.0 Q 216 50 220.5 52.0 Q 225 54 229.0 56.0 Q 233 58 236.0 60.0 Q 239 62 241.5 64.0 Q 244 66 247.0 68.0 Q 250 70 252.0 72.0 Q 254 74 256.0 76.0 Q 258 78 260.0 80.0 Q 262 82 263.5 84.0 Q 265 86 266.5 88.0 Q 268 90 270.0 92.0 Q 272 94 273.0 96.0 Q 274 98 275.0 100.0 Q 276 102 277.0 104.0 Q 278 106 279.0 108.0 Q 280 110 281.0 112.0 Q 282 114 282.5 116.0 Q 283 118 284.0 120.0 Q 285 122 285.5 124.0 Q 286 126 286.5 128.0 Q 287 130 287.5 132.0 Q 288 134 288.5 136.0 Q 289 138 289.0 140.0 Q 289 142 289.5 144.0 Q 290 146 290.5 148.0 Q 291 150 291.5 152.0 Q 292 154 292.0 156.0 Q 292 158 292.0 160.0 Q 292 162 292.5 164.0 Q 293 166 292.5 168.0 Q 292 170 292.0 172.0 Q 292 174 292.0 176.0 Q 292 178 292.0 180.0 Q 292 182 292.0 184.0 Q 292 186 292.0 188.0 Q 292 190 291.5 192.0 Q 291 194 291.0 196.0 Q 291 198 291.0 200.0 Q 291 202 291.0 204.0 Q 291 206 290.5 208.0 Q 290 210 290.0 212.0 Q 290 214 290.0 216.0 Q 290 218 289.5 220.0 Q 289 222 289.0 224.0 Q 289 226 288.0 228.0 Q 287 230 286.5 232.0 Q 286 234 286.0 236.0 Q 286 238 284.5 240.0 Q 283 242 283.0 244.0 Q 283 246 282.0 248.0 Q 281 250 280.0 252.0 Q 279 254 278.0 256.0 Q 277 258 276.0 260.0 Q 275 262 274.0 264.0 Q 273 266 271.5 268.0 Q 270 270 269.0 272.0 Q 268 274 266.5 276.0 Q 265 278 264.0 280.0 Q 263 282 261.5 284.0 Q 260 286 259.5 288.0 Q 259 290 258.5 292.0 Q 258 294 256.5 296.0 Q 255 298 254.0 300.0 Q 253 302 252.0 304.0 Q 251 306 250.0 308.0 Q 249 310 248.5 312.0 Q 248 314 248.0 316.0 Q 248 318 247.0 320.0 Q 246 322 246.0 324.0 Q 246 326 245.5 328.0 Q 245 330 244.5 332.0 Q 244 334 243.5 336.0 Q 243 338 242.5 340.0 Q 242 342 242.0 344.0 Q 242 346 242.0 348.0 Q 242 350 242.0 352.0 Q 242 354 242.0 356.0 Q 242 358 242.0 360.0 Q 242 362 242.5 364.0 Q 243 366 243.5 368.0 Q 244 370 245.0 372.0 Q 246 374 246.0 376.0 Q 246 378 247.0 380.0 Q 248 382 249.5 384.0 Q 251 386 251.5 388.0 Q 252 390 253.0 392.0 Q 254 394 255.5 396.0 Q 257 398 257.5 400.0 Q 258 402 259.0 404.0 Q 260 406 262.0 408.0 Q 264 410 266.5 412.0 Q 269 414 270.5 416.0 Q 272 418 274.0 420.0 Q 276 422 277.0 424.0 Q 278 426 279.5 428.0 Q 281 430 282.5 432.0 Q 284 434 286.0 436.0 Q 288 438 288.0 438.5 Q 288 439 200.0 439.0 Q 112 439 112.0 438.5 Q 112 438 112.5 436.0 Q 113 434 113.0 432.0 Q 113 430 113.0 428.0 Q 113 426 112.5 424.0 Q 112 422 112.0 420.0 Q 112 418 110.5 416.0 Q 109 414 108.0 412.0 Q 107 410 107.0 408.0 Q 107 406 106.5 404.0 Q 106 402 104.5 400.0 Q 103 398 103.0 396.0 Q 103 394 101.5 392.0 Q 100 390 99.0 388.0 Q 98 386 97.5 384.0 Q 97 382 95.5 380.0 Q 94 378 91.5 376.0 Q 89 374 87.0 372.0 Q 85 370 69.0 368.0 Q 53 366 48.5 364.0 Q 44 362 42.5 360.0 Q 41 358 39.0 356.0 Q 37 354 36.0 352.0 Q 35 350 34.5 348.0 Q 34 346 33.0 344.0 Q 32 342 32.0 340.0 Q 32 338 31.5 336.0 Q 31 334 30.0 332.0 Q 29 330 28.5 328.0 Q 28 326 27.5 324.0 Q 27 322 26.5 320.0 Q 26 318 25.0 316.0 Q 24 314 23.5 312.0 Q 23 310 22.5 308.0 Q 22 306 21.0 304.0 Q 20 302 19.5 300.0 Q 19 298 18.5 296.0 Q 18 294 17.0 292.0 Q 16 290 15.5 288.0 Q 15 286 14.5 284.0 Q 14 282 13.5 280.0 Q 13 278 11.5 276.0 Q 10 274 7.5 272.0 Q 5 270 3.5 268.0 Q 2 266 1.5 264.0 Q 1 262 1.0 260.0 Q 1 258 1.5 256.0 Q 2 254 2.0 252.0 Q 2 250 3.0 248.0 Q 4 246 4.5 244.0 Q 5 242 6.0 240.0 Q 7 238 8.5 236.0 Q 10 234 10.5 232.0 Q 11 230 12.5 228.0 Q 14 226 15.0 224.0 Q 16 222 17.0 220.0 Q 18 218 18.0 216.0 Q 18 214 19.0 212.0 Q 20 210 20.5 208.0 Q 21 206 20.5 204.0 Q 20 202 20.0 200.0 Q 20 198 19.5 196.0 Q 19 194 19.0 192.0 Q 19 190 18.5 188.0 Q 18 186 18.0 184.0 Q 18 182 18.0 180.0 Q 18 178 17.5 176.0 Q 17 174 17.5 172.0 Q 18 170 17.5 168.0 Q 17 166 16.5 164.0 Q 16 162 16.0 160.0 Q 16 158 15.5 156.0 Q 15 154 15.0 152.0 Q 15 150 15.0 148.0 Q 15 146 15.0 144.0 Q 15 142 15.0 140.0 Q 15 138 15.0 136.0 Q 15 134 15.5 132.0 Q 16 130 16.5 128.0 Q 17 126 17.0 124.0 Q 17 122 18.0 120.0 Q 19 118 19.5 116.0 Q 20 114 21.0 112.0 Q 22 110 23.0 108.0 Q 24 106 25.5 104.0 Q 27 102 27.5 100.0 Q 28 98 29.0 96.0 Q 30 94 32.0 92.0 Q 34 90 35.5 88.0 Q 37 86 38.5 84.0 Q 40 82 42.0 80.0 Q 44 78 46.0 76.0 Q 48 74 49.5 72.0 Q 51 70 54.0 68.0 Q 57 66 59.0 64.0 Q 61 62 64.0 60.0 Q 67 58 69.5 56.0 Q 72 54 76.0 52.0 Q 80 50 84.5 48.0 Q 89 46 96.5 44.0 Q 104 42 121.5 40.0 Q 139 38 144.5 38.0 Z" fill="#b6c6b6"></path>
  </g>
  <text x="244" y="330" text-anchor="middle" font-family="Outfit,&#39;Helvetica Neue&#39;,Arial,sans-serif" font-size="264" font-weight="700" fill="#1a1a1a">N</text>
  <rect x="176" y="360" width="136" height="34" rx="17" fill="#4caf78"></rect>
</svg>